<svg width="3629" height="321" viewBox="0 0 3629 321" fill="none" xmlns="http://www.w3.org/2000/svg">
<path d="M117.346 149L234.693 258.5H0L117.346 149Z" fill="black"/>
<path d="M642.346 141L759.693 250.5H525L642.346 141Z" fill="black"/>
<path d="M471.346 0L588.693 109.5H354L471.346 0Z" fill="black"/>
<path d="M273.346 149L390.693 258.5H156L273.346 149Z" fill="black"/>
<path d="M0 250H734.846V320H0V250Z" fill="black"/>
<path d="M351.846 185H558.846V276H351.846V185Z" fill="black"/>
<path d="M378.846 103H558.846V199H378.846V103Z" fill="black"/>
<path d="M486.193 141L603.539 250.5H368.846L486.193 141Z" fill="black"/>
<path d="M1011.19 149L1128.54 258.5H893.846L1011.19 149Z" fill="black"/>
<path d="M840.193 0L957.539 109.5H722.846L840.193 0Z" fill="black"/>
<path d="M642.193 149L759.539 258.5H524.846L642.193 149Z" fill="black"/>
<path d="M390.693 250H1103.69V320H390.693V250Z" fill="black"/>
<path d="M720.693 185H927.693V276H720.693V185Z" fill="black"/>
<path d="M747.693 103H927.693V199H747.693V103Z" fill="black"/>
<path d="M2617.19 149L2734.54 258.5H2499.85L2617.19 149Z" fill="black"/>
<path d="M3142.19 141L3259.54 250.5H3024.85L3142.19 141Z" fill="black"/>
<path d="M2971.19 0L3088.54 109.5H2853.85L2971.19 0Z" fill="black"/>
<path d="M2773.19 149L2890.54 258.5H2655.85L2773.19 149Z" fill="black"/>
<path d="M2521.69 250H3234.69V320H2521.69V250Z" fill="black"/>
<path d="M2851.69 185H3058.69V276H2851.69V185Z" fill="black"/>
<path d="M2878.69 103H3058.69V199H2878.69V103Z" fill="black"/>
<path d="M2986.04 141L3103.39 250.5H2868.69L2986.04 141Z" fill="black"/>
<path d="M3511.04 149L3628.39 258.5H3393.69L3511.04 149Z" fill="black"/>
<path d="M3340.04 0L3457.39 109.5H3222.69L3340.04 0Z" fill="black"/>
<path d="M3142.04 149L3259.39 258.5H3024.69L3142.04 149Z" fill="black"/>
<path d="M2890.54 250L3628.39 250.5V320.5L2890.54 320V250Z" fill="black"/>
<path d="M3220.54 185H3427.54V276H3220.54V185Z" fill="black"/>
<path d="M3247.54 103H3427.54V199H3247.54V103Z" fill="black"/>
<path d="M1536.19 141L1653.54 250.5H1418.85L1536.19 141Z" fill="black"/>
<path d="M2061.19 141L2178.54 250.5H1943.85L2061.19 141Z" fill="black"/>
<path d="M1890.19 0L2007.54 109.5H1772.85L1890.19 0Z" fill="black"/>
<path d="M1692.19 141L1809.54 250.5H1574.85L1692.19 141Z" fill="black"/>
<path d="M1440.69 250H2153.69V320H1440.69V250Z" fill="black"/>
<path d="M1770.69 185H1977.69V276H1770.69V185Z" fill="black"/>
<path d="M1797.69 103H1977.69V199H1797.69V103Z" fill="black"/>
<path d="M1905.04 141L2022.39 250.5H1787.69L1905.04 141Z" fill="black"/>
<path d="M2430.04 149L2547.39 258.5H2312.69L2430.04 149Z" fill="black"/>
<path d="M2259.04 0L2376.39 109.5H2141.69L2259.04 0Z" fill="black"/>
<path d="M2061.04 149L2178.39 258.5H1943.69L2061.04 149Z" fill="black"/>
<path d="M1809.54 250H2522.54V320H1809.54V250Z" fill="black"/>
<path d="M2139.54 185H2346.54V276H2139.54V185Z" fill="black"/>
<path d="M2166.54 103H2346.54V199H2166.54V103Z" fill="black"/>
<path d="M1011.19 149L1128.54 258.5H893.846L1011.19 149Z" fill="black"/>
<path d="M1536.19 141L1653.54 250.5H1418.85L1536.19 141Z" fill="black"/>
<path d="M1365.19 0L1482.54 109.5H1247.85L1365.19 0Z" fill="black"/>
<path d="M1167.19 149L1284.54 258.5H1049.85L1167.19 149Z" fill="black"/>
<path d="M915.693 250H1628.69V320H915.693V250Z" fill="black"/>
<path d="M1245.69 185H1452.69V276H1245.69V185Z" fill="black"/>
<path d="M1272.69 103H1452.69V199H1272.69V103Z" fill="black"/>
<path d="M1380.04 141L1497.39 250.5H1262.69L1380.04 141Z" fill="black"/>
<path d="M1905.04 141L2022.39 250.5H1787.69L1905.04 141Z" fill="black"/>
<path d="M1734.04 0L1851.39 109.5H1616.69L1734.04 0Z" fill="black"/>
<path d="M1536.04 149L1653.39 258.5H1418.69L1536.04 149Z" fill="black"/>
<path d="M1284.54 250H1997.54V320H1284.54V250Z" fill="black"/>
<path d="M1614.54 185H1821.54V276H1614.54V185Z" fill="black"/>
<path d="M1641.54 103H1821.54V199H1641.54V103Z" fill="black"/>
</svg>
