<svg width="180" height="170" viewBox="0 0 180 170" fill="none" xmlns="http://www.w3.org/2000/svg">
<path d="M79.3057 32.8224V125.694C79.3057 129.284 77.701 132.212 74.1553 134.581C70.5428 136.892 65.6871 138.134 59.4327 138.134H49.6592C43.4041 138.134 38.5474 136.893 34.9346 134.581C31.3895 132.212 29.7852 129.283 29.7852 125.694V95.2424H47.8917V124.917C47.8917 125.758 48.2542 126.617 49.0723 127.163C49.7475 127.614 50.5077 127.694 51.0547 127.694H58.0362C58.5833 127.694 59.3433 127.614 60.0186 127.163C60.8369 126.617 61.1993 125.758 61.1993 124.917V43.2629H52.1661L53.5118 32.8224H79.3057ZM112.379 32.2014H129.133C135.386 32.2014 140.237 33.4941 143.847 35.9025L143.876 35.9221C147.406 38.1868 149.007 41.0541 149.007 44.6418V77.2775L130.9 76.0051V45.4182C130.9 44.5776 130.538 43.7181 129.72 43.1721C129.044 42.7214 128.284 42.6418 127.736 42.6418H113.774C113.227 42.6418 112.467 42.7215 111.792 43.1721C110.974 43.7181 110.611 44.5775 110.611 45.4182V124.917C110.611 125.758 110.974 126.617 111.792 127.163C112.467 127.614 113.227 127.694 113.774 127.694H127.736C128.284 127.694 129.044 127.614 129.72 127.163C130.538 126.617 130.9 125.758 130.9 124.917V94.3107H149.007V125.694C149.007 129.28 147.405 132.207 143.866 134.575C140.253 136.89 135.393 138.134 129.133 138.134H112.379C106.124 138.134 101.267 136.893 97.6544 134.581C94.1092 132.212 92.5049 129.283 92.5049 125.694V44.6418C92.5049 41.0542 94.1053 38.1867 97.6348 35.9221L97.6505 35.9123L97.6651 35.9025C101.275 33.4941 106.126 32.2014 112.379 32.2014Z" fill="white" stroke="#7BD0F5" stroke-width="4"/>
<path d="M157.393 22.2725L157.701 23.1387L158.558 23.4697L174.443 29.5967L158.558 35.7256L157.701 36.0557L157.393 36.9219L151.61 53.2148L145.828 36.9219L145.52 36.0557L144.663 35.7256L128.777 29.5967L144.663 23.4697L145.52 23.1387L145.828 22.2725L151.61 5.97852L157.393 22.2725Z" fill="white" stroke="#7BD0F5" stroke-width="4"/>
<path d="M34.1719 132.205L34.4795 133.072L35.3369 133.403L51.2217 139.53L35.3369 145.658L34.4795 145.989L34.1719 146.855L28.3887 163.148L22.6064 146.855L22.2988 145.989L21.4414 145.658L5.55566 139.53L21.4414 133.403L22.2988 133.072L22.6064 132.205L28.3887 115.911L34.1719 132.205Z" fill="white" stroke="#7BD0F5" stroke-width="4"/>
<path d="M60.7451 81.0156L60.9004 81.4482L61.3291 81.6123L70.1963 85L61.3291 88.3877L60.9004 88.5518L60.7451 88.9844L57.5 98.0361L54.2549 88.9844L54.0996 88.5518L53.6709 88.3877L44.8027 85L53.6709 81.6123L54.0996 81.4482L54.2549 81.0156L57.5 71.9629L60.7451 81.0156Z" fill="white" stroke="#7BD0F5" stroke-width="2"/>
<path d="M138.745 90.0156L138.9 90.4482L139.329 90.6123L148.196 94L139.329 97.3877L138.9 97.5518L138.745 97.9844L135.5 107.036L132.255 97.9844L132.1 97.5518L131.671 97.3877L122.803 94L131.671 90.6123L132.1 90.4482L132.255 90.0156L135.5 80.9629L138.745 90.0156Z" fill="white" stroke="#7BD0F5" stroke-width="2"/>
<path d="M91.7451 26.0156L91.9004 26.4482L92.3291 26.6123L101.196 30L92.3291 33.3877L91.9004 33.5518L91.7451 33.9844L88.5 43.0361L85.2549 33.9844L85.0996 33.5518L84.6709 33.3877L75.8027 30L84.6709 26.6123L85.0996 26.4482L85.2549 26.0156L88.5 16.9629L91.7451 26.0156Z" fill="white" stroke="#7BD0F5" stroke-width="2"/>
</svg>
