<svg width="168" height="194" viewBox="0 0 168 194" fill="none" xmlns="http://www.w3.org/2000/svg">
<path d="M167.296 48.2939V144.883L83.6484 193.177L0 144.883V48.2939L83.6484 0L167.296 48.2939ZM15.3154 57.1367V136.04L83.6484 175.491L151.98 136.04V57.1367L83.6484 17.6846L15.3154 57.1367Z" fill="#3DDB85"/>
<path d="M107.013 108.093C104.717 108.093 102.849 106.223 102.849 103.927C102.849 101.631 104.717 99.7637 107.013 99.7637C109.309 99.7637 111.177 101.631 111.177 103.927C111.177 106.224 109.309 108.093 107.013 108.093ZM60.9874 108.093C58.6913 108.093 56.8236 106.223 56.8236 103.927C56.8236 101.631 58.6909 99.7637 60.9874 99.7637C63.2834 99.7637 65.1511 101.631 65.1511 103.927C65.1511 106.224 63.2838 108.093 60.9874 108.093ZM108.506 83.0096L116.828 68.5961C117.057 68.1984 117.119 67.726 117 67.2826C116.882 66.8392 116.592 66.4611 116.195 66.2311C115.797 66.0021 115.324 65.9403 114.881 66.0591C114.438 66.1779 114.06 66.4677 113.83 66.8649L105.403 81.4605C98.9592 78.52 91.7223 76.8817 84 76.8817C76.2777 76.8817 69.0409 78.52 62.5971 81.4605L54.1705 66.8649C53.9405 66.4677 53.5624 66.1779 53.119 66.0591C52.6756 65.9403 52.2033 66.0021 51.8055 66.2311C51.408 66.4608 51.1179 66.839 50.9991 67.2825C50.8802 67.7259 50.9423 68.1984 51.1717 68.5961L59.4939 83.0096C45.2035 90.7819 35.4298 105.249 34 122.341H134C132.569 105.249 122.795 90.7819 108.506 83.0092" fill="#3DDB85"/>
</svg>
