<svg width="168" height="194" viewBox="0 0 168 194" fill="none" xmlns="http://www.w3.org/2000/svg">
<path d="M167.296 48.2939V144.883L83.6484 193.177L0 144.883V48.2939L83.6484 0L167.296 48.2939ZM15.3154 57.1367V136.04L83.6484 175.491L151.98 136.04V57.1367L83.6484 17.6846L15.3154 57.1367Z" fill="#B52E31"/>
<path d="M37 63.5746L83.5191 47L131.291 63.2799L123.556 124.827L83.5191 147L44.1087 125.122L37 63.5746Z" fill="#E23237"/>
<path d="M131.291 63.2799L83.5191 47V147L123.556 124.864L131.291 63.2799V63.2799Z" fill="#B52E31"/>
<path d="M83.5926 58.676L54.6059 123.17L65.4343 122.985L71.254 108.436H97.2575L103.63 123.17L113.979 123.354L83.5926 58.676ZM83.6666 79.3391L93.4638 99.8176H75.0474L83.6666 79.3391Z" fill="white"/>
</svg>
