<svg width="168" height="194" viewBox="0 0 168 194" fill="none" xmlns="http://www.w3.org/2000/svg">
<path d="M167.296 48.2939V144.883L83.6484 193.177L0 144.883V48.2939L83.6484 0L167.296 48.2939ZM15.3154 57.1367V136.04L83.6484 175.491L151.98 136.04V57.1367L83.6484 17.6846L15.3154 57.1367Z" fill="#442A85"/>
<path d="M84 147.833C55.9705 147.833 33.1667 125.029 33.1667 97C33.1667 68.9705 55.9705 46.1666 84 46.1666C97.0464 46.1666 109.45 51.1025 118.925 60.0619C119.944 61.0252 119.99 62.6366 119.024 63.6558C118.058 64.6801 116.447 64.7182 115.43 63.7575C106.905 55.6928 95.7425 51.25 84 51.25C58.774 51.25 38.25 71.7739 38.25 97C38.25 122.226 58.774 142.75 84 142.75C109.226 142.75 129.75 122.226 129.75 97C129.75 93.5357 129.364 90.0892 128.599 86.7545C128.286 85.3845 129.14 84.0222 130.507 83.7096C131.867 83.3868 133.237 84.2484 133.552 85.6184C134.401 89.3241 134.833 93.1544 134.833 97C134.833 125.029 112.029 147.833 84 147.833Z" fill="#512DA8"/>
<path d="M119.583 71.5833C123.794 71.5833 127.208 68.1695 127.208 63.9583C127.208 59.7471 123.794 56.3333 119.583 56.3333C115.372 56.3333 111.958 59.7471 111.958 63.9583C111.958 68.1695 115.372 71.5833 119.583 71.5833Z" fill="#512DA8"/>
<path d="M86.5417 71.5833H76.375L61.125 117.333H71.2917L86.5417 71.5833Z" fill="#512DA8"/>
<path d="M81.4583 71.5833H91.625L106.875 117.333H96.7083L81.4583 71.5833Z" fill="#512DA8"/>
<path d="M89.0833 109.708H71.2917V99.5416H86.5417L89.0833 109.708Z" fill="#512DA8"/>
</svg>
