<svg width="168" height="194" viewBox="0 0 168 194" fill="none" xmlns="http://www.w3.org/2000/svg">
<path d="M167.296 48.2939V144.883L83.6484 193.177L0 144.883V48.2939L83.6484 0L167.296 48.2939ZM15.3154 57.1367V136.04L83.6484 175.491L151.98 136.04V57.1367L83.6484 17.6846L15.3154 57.1367Z" fill="#F37036"/>
<path d="M123.573 66.4394C117.528 58.6121 109.298 52.7531 99.9235 49.6035C90.5488 46.4539 80.4507 46.155 70.9062 48.7448C61.3617 51.3346 52.7996 56.6967 46.3027 64.1529C39.8059 71.6091 35.6661 80.8245 34.4069 90.6336C33.1478 100.443 34.8259 110.405 39.2289 119.26C43.6319 128.116 50.5622 135.466 59.1431 140.383C67.7241 145.299 77.5703 147.561 87.4365 146.881C97.3027 146.201 106.746 142.611 114.571 136.564C136.415 119.683 140.446 88.2908 123.571 66.4394H123.573Z" fill="#F37036"/>
<path d="M100.863 78.8582L79.7808 100.108L73.8231 93.9831C94.5728 73.2332 96.6556 75.1082 100.865 78.8582H100.863Z" fill="white"/>
<path d="M79.781 100.689C79.5942 100.685 79.4159 100.61 79.281 100.481L73.281 94.4814C73.1459 94.3415 73.0704 94.1547 73.0704 93.9603C73.0704 93.7658 73.1459 93.579 73.281 93.4392C93.7387 72.9816 96.5308 73.9394 101.364 78.3143C101.445 78.3791 101.509 78.4618 101.553 78.5559C101.596 78.65 101.617 78.7529 101.614 78.8565C101.645 79.0596 101.567 79.2674 101.406 79.3987L80.3232 100.483C80.1753 100.618 79.9815 100.693 79.781 100.691V100.689ZM74.8638 93.9814L79.781 98.8985L99.7808 78.8987C99.0903 78.0333 98.1049 77.4528 97.0133 77.2683C95.9216 77.0839 94.8002 77.3083 93.8637 77.8987C90.2387 79.5237 84.4059 84.4814 74.8638 93.9814Z" fill="#F37036"/>
<path d="M85.823 105.983L80.073 100.108L101.156 79.2738C106.823 84.8159 98.4057 94.0658 85.823 105.981V105.983Z" fill="white"/>
<path d="M85.8231 106.733C85.6387 106.718 85.4636 106.645 85.3231 106.525L79.4482 100.775C79.3601 100.561 79.3601 100.322 79.4482 100.108C79.3857 99.9326 79.3857 99.741 79.4482 99.5657L100.531 78.4831C100.677 78.3454 100.871 78.2687 101.072 78.2687C101.273 78.2687 101.467 78.3454 101.614 78.4831C102.296 79.1115 102.836 79.8796 103.195 80.7351C103.555 81.5906 103.726 82.5134 103.696 83.4409C103.696 89.0658 97.2793 96.1486 86.3637 106.483C86.2179 106.627 86.026 106.716 85.8216 106.733H85.8231ZM81.156 100.108L85.8637 104.814C94.1965 96.9392 102.156 88.8143 102.196 83.3143C102.242 82.1484 101.856 81.0065 101.114 80.1066L81.156 100.108Z" fill="#F37036"/>
<path d="M73.9888 94.108L78.1559 98.2751C78.1825 98.2986 78.2038 98.3274 78.2184 98.3597C78.233 98.3921 78.2406 98.4271 78.2406 98.4626C78.2406 98.4981 78.233 98.5331 78.2184 98.5655C78.2038 98.5978 78.1825 98.6266 78.1559 98.6501L69.3638 100.525C69.1864 100.563 69.0012 100.543 68.8366 100.466C68.672 100.389 68.537 100.261 68.4521 100.101C68.3671 99.9401 68.337 99.7562 68.3662 99.5771C68.3954 99.3979 68.4824 99.2331 68.6139 99.1079L73.7388 94.0251C73.7388 94.0251 73.906 94.0251 73.9888 94.108Z" fill="white"/>
<path d="M69.156 101.358C68.8782 101.354 68.6059 101.28 68.3652 101.141C68.1245 101.002 67.9234 100.804 67.781 100.566C67.6208 100.264 67.5627 99.9176 67.6153 99.5797C67.668 99.2417 67.8286 98.9299 68.0732 98.6908L73.1559 93.5658C73.3392 93.402 73.5765 93.3114 73.8223 93.3114C74.0682 93.3114 74.3054 93.402 74.4887 93.5658L78.6559 97.733C78.9027 97.9673 78.9996 98.322 78.9059 98.6501C78.8121 98.9783 78.5371 99.2392 78.1981 99.3173L69.406 101.192L69.156 101.358ZM73.8231 95.0252L69.1154 99.7329L76.9074 98.0658L73.8231 95.0252Z" fill="#F37036"/>
<path d="M112.073 67.1489C109.057 64.2396 104.32 64.1177 101.157 66.863C97.9948 69.6083 97.4541 74.3207 99.9166 77.7113C102.379 81.1019 107.021 82.0519 110.615 79.8988L104.948 74.2317L112.073 67.1489Z" fill="white"/>
<path d="M106.448 81.8144C104.715 81.7921 103.028 81.2606 101.595 80.2859C100.163 79.3112 99.0485 77.9365 98.3917 76.3331C97.7354 74.7309 97.5633 72.9715 97.8965 71.2725C98.2298 69.5734 99.0538 68.0094 100.267 66.7738C101.935 65.1363 104.179 64.2189 106.517 64.2189C108.854 64.2189 111.099 65.1363 112.767 66.7738C112.926 66.9082 113.017 67.1066 113.017 67.316C113.016 67.419 112.994 67.5208 112.951 67.6143C112.908 67.7078 112.845 67.791 112.767 67.8582L106.017 74.2332L111.142 79.2753C111.225 79.3546 111.287 79.453 111.323 79.562C111.36 79.6709 111.369 79.7871 111.35 79.9003C111.337 80.0095 111.301 80.1147 111.243 80.2084C111.186 80.3021 111.109 80.382 111.017 80.4425C109.64 81.3031 108.057 81.778 106.434 81.8175L106.448 81.8144ZM106.448 65.6473C103.479 65.6629 100.823 67.4488 99.7089 70.1785C98.5949 72.9082 99.2011 76.0503 101.282 78.1472C102.318 79.1884 103.643 79.8927 105.085 80.1679C106.528 80.4431 108.019 80.2763 109.365 79.6894L104.448 74.7722C104.37 74.7097 104.307 74.6304 104.263 74.5402C104.22 74.45 104.197 74.3512 104.197 74.2511C104.197 74.151 104.22 74.0522 104.263 73.962C104.307 73.8718 104.37 73.7925 104.448 73.73L110.948 67.1879C109.656 66.1976 108.076 65.6562 106.448 65.6457V65.6473Z" fill="#F37036"/>
<path d="M112.198 67.2738L105.073 74.3565L110.74 80.0237C111.31 79.6962 111.841 79.3046 112.323 78.8565C113.808 77.2865 114.625 75.2009 114.602 73.0399C114.579 70.8788 113.717 68.8113 112.198 67.2738Z" fill="white"/>
<path d="M110.613 80.6488C110.52 80.6539 110.426 80.6378 110.34 80.6019C110.253 80.5659 110.176 80.5109 110.113 80.441L104.446 74.7738C104.368 74.7113 104.305 74.6321 104.262 74.5418C104.218 74.4516 104.196 74.3528 104.196 74.2528C104.196 74.1527 104.218 74.0539 104.262 73.9637C104.305 73.8735 104.368 73.7942 104.446 73.7317L111.529 66.7739C111.597 66.6708 111.69 66.5862 111.799 66.5276C111.908 66.4691 112.03 66.4385 112.154 66.4385C112.278 66.4385 112.4 66.4691 112.509 66.5276C112.618 66.5862 112.711 66.6708 112.779 66.7739C113.611 67.5886 114.271 68.561 114.722 69.6342C115.173 70.7074 115.405 71.8598 115.405 73.0239C115.405 74.1879 115.173 75.3403 114.722 76.4135C114.271 77.4867 113.611 78.4591 112.779 79.2738C112.289 79.7941 111.727 80.2427 111.112 80.6066C110.957 80.6847 110.778 80.6998 110.612 80.6488H110.613ZM106.031 74.2332L110.738 78.941C111.062 78.714 111.369 78.4633 111.656 78.191C113.04 76.8108 113.819 74.9378 113.823 72.9832C113.826 71.2341 113.188 69.5444 112.031 68.2333L106.031 74.2332Z" fill="#F37036"/>
<path d="M101.739 79.7332C101.174 79.2032 100.429 78.9082 99.655 78.9082C98.8808 78.9082 98.1358 79.2032 97.5714 79.7332L78.6981 98.5643L81.8231 101.731L101.781 84.2316C102.085 83.9399 102.327 83.589 102.49 83.2004C102.654 82.8119 102.736 82.394 102.732 81.9725C102.728 81.5509 102.638 81.1346 102.467 80.7492C102.296 80.3639 102.048 80.0175 101.739 79.7316V79.7332Z" fill="white"/>
<path d="M81.6559 102.483C81.4692 102.478 81.2909 102.404 81.1559 102.275L77.9888 99.108C77.8537 98.9681 77.7782 98.7813 77.7782 98.5869C77.7782 98.3925 77.8537 98.2056 77.9888 98.0658L96.8636 79.2738C97.4073 78.7308 98.1015 78.3636 98.8564 78.22C99.6112 78.0763 100.392 78.1627 101.097 78.468C101.802 78.7734 102.399 79.2835 102.811 79.9323C103.222 80.5811 103.43 81.3386 103.406 82.1066C103.384 82.6278 103.259 83.1396 103.037 83.6118C102.815 84.084 102.501 84.5072 102.114 84.8565L82.1559 102.356C82.0108 102.459 81.8324 102.504 81.6559 102.481V102.483ZM79.4482 98.5642L81.5309 100.689L101.114 83.6472C101.598 83.2253 101.887 82.6222 101.906 81.98C101.925 81.3378 101.671 80.7097 101.198 80.2722C100.761 79.8368 100.169 79.5924 99.5519 79.5924C98.9349 79.5924 98.343 79.8368 97.9058 80.2722L79.4482 98.5642Z" fill="#F37036"/>
<path d="M64.0733 120.023C64.02 120.096 63.9913 120.183 63.9913 120.273C63.9913 120.363 64.02 120.451 64.0733 120.523L64.9061 124.148C64.9395 124.362 64.9079 124.58 64.8153 124.775C64.7228 124.97 64.5737 125.133 64.3874 125.242C64.2017 125.351 63.9864 125.398 63.7725 125.376C63.5585 125.354 63.3569 125.265 63.1968 125.122L57.489 119.622L75.281 101.689H81.4481L85.6152 105.856C79.1149 111.54 71.8669 116.306 64.0733 120.023Z" fill="white"/>
<path d="M63.6983 126.148C63.2264 126.139 62.7608 125.945 62.4483 125.606L56.9905 120.148C56.9124 120.086 56.8492 120.007 56.8059 119.916C56.7625 119.826 56.74 119.727 56.74 119.627C56.74 119.527 56.7625 119.428 56.8059 119.338C56.8492 119.248 56.9124 119.169 56.9905 119.106L74.906 101.149C75.0063 101.042 75.1374 100.969 75.281 100.941H81.4887C81.6505 100.884 81.827 100.884 81.9887 100.941L86.1559 105.108C86.2351 105.181 86.2954 105.272 86.3316 105.374C86.3678 105.475 86.3788 105.584 86.3637 105.691C86.3666 105.794 86.3456 105.897 86.3022 105.991C86.2589 106.085 86.1943 106.168 86.1137 106.233L85.7809 106.525C79.2543 111.966 72.0738 116.571 64.4061 120.233L65.1983 123.608C65.2595 123.868 65.2618 124.139 65.2051 124.4C65.1484 124.662 65.034 124.907 64.8704 125.119C64.7068 125.33 64.498 125.502 64.2592 125.623C64.0205 125.744 63.7579 125.809 63.4905 125.816L63.6983 126.148ZM58.6155 119.606L63.5311 124.564C63.5769 124.605 63.6361 124.627 63.6975 124.627C63.7589 124.627 63.8181 124.605 63.8639 124.564C63.8945 124.521 63.911 124.47 63.911 124.418C63.911 124.365 63.8945 124.314 63.8639 124.272L63.0311 120.647C62.9655 120.387 62.9918 120.112 63.1058 119.869C63.2197 119.626 63.4141 119.43 63.6561 119.314C71.1176 115.701 78.113 111.196 84.4887 105.897L81.0716 102.48H75.4888L58.6155 119.606Z" fill="#F37036"/>
<path d="M53.1984 123.898L57.3655 119.731L63.7827 126.148L53.5749 125.44C53.3997 125.427 53.2332 125.358 53.0994 125.244C52.9655 125.13 52.871 124.977 52.8295 124.806C52.7879 124.635 52.8013 124.456 52.8678 124.293C52.9344 124.13 53.0506 123.993 53.2 123.9L53.1984 123.898Z" fill="white"/>
<path d="M63.906 126.773L53.739 126.066C53.1359 126.009 52.6171 125.597 52.4046 125.045C52.1921 124.494 52.3218 123.839 52.739 123.398L56.9061 119.231C57.046 119.096 57.2328 119.021 57.4272 119.021C57.6216 119.021 57.8085 119.096 57.9483 119.231L64.3232 125.606C64.4115 125.727 64.459 125.873 64.459 126.023C64.459 126.172 64.4115 126.318 64.3232 126.439C64.2268 126.595 64.0794 126.712 63.906 126.772V126.773ZM53.739 124.441L62.0717 124.983L57.4889 120.691L53.739 124.441Z" fill="#F37036"/>
<path d="M82.0308 102.192L73.6138 103.484L78.4887 98.6517L82.0308 102.192Z" fill="white"/>
<path d="M73.6138 104.274C73.4739 104.277 73.336 104.24 73.2174 104.165C73.0987 104.091 73.0046 103.984 72.9466 103.856C72.8579 103.736 72.8101 103.59 72.8101 103.44C72.8101 103.29 72.8579 103.144 72.9466 103.024L77.7793 98.1485C77.9259 98.0108 78.1196 97.9341 78.3207 97.9341C78.5219 97.9341 78.7155 98.0108 78.8621 98.1485L82.4058 101.689C82.4766 101.801 82.5141 101.931 82.5141 102.064C82.5141 102.197 82.4766 102.327 82.4058 102.439C82.3711 102.576 82.2976 102.7 82.1942 102.796C82.0909 102.892 81.962 102.957 81.823 102.981L73.4904 104.274H73.6138ZM78.4887 99.7314L75.7809 102.439L80.448 101.731L78.4887 99.7314Z" fill="#F37036"/>
<path d="M82.0309 102.189L76.156 102.939C75.9988 102.975 75.8342 102.959 75.6868 102.894C75.5393 102.829 75.4168 102.718 75.3374 102.577C75.2579 102.437 75.2258 102.275 75.2458 102.115C75.2657 101.955 75.3367 101.806 75.4482 101.689L78.4903 98.6471L82.0309 102.189Z" fill="white"/>
<path d="M75.9888 103.733C75.7165 103.73 75.4497 103.656 75.2156 103.517C74.9815 103.377 74.7884 103.179 74.656 102.941C74.4969 102.656 74.4352 102.326 74.4803 102.003C74.5254 101.679 74.6749 101.379 74.906 101.149L77.9482 98.1064C78.0948 97.9687 78.2884 97.892 78.4896 97.892C78.6907 97.892 78.8844 97.9687 79.031 98.1064L82.5731 101.649C82.6785 101.748 82.7526 101.877 82.7865 102.018C82.8204 102.159 82.8127 102.307 82.7642 102.443C82.7158 102.58 82.6287 102.7 82.5135 102.788C82.3983 102.877 82.26 102.93 82.1153 102.941L76.2826 103.691L75.9888 103.733ZM75.9888 102.191L80.406 101.649L78.4482 99.6908L75.9482 102.191H75.9888ZM112.238 72.066C112.16 71.9345 112.036 71.8364 111.89 71.7903C111.744 71.7442 111.586 71.7534 111.446 71.816C111.377 71.8509 111.316 71.8994 111.266 71.9584C111.216 72.0175 111.179 72.0859 111.156 72.1597C111.109 72.3087 111.124 72.47 111.196 72.6082C111.488 73.2222 111.407 73.9488 110.988 74.4832C110.936 74.5346 110.896 74.5963 110.869 74.6644C110.842 74.7324 110.829 74.8053 110.832 74.8785C110.834 75.025 110.889 75.1658 110.988 75.2738C111.095 75.316 111.214 75.316 111.321 75.2738C111.418 75.2982 111.52 75.2955 111.616 75.266C111.711 75.2365 111.797 75.1814 111.863 75.1066C112.207 74.6865 112.424 74.178 112.49 73.6396C112.557 73.1013 112.469 72.5552 112.238 72.0644V72.066Z" fill="#F37036"/>
</svg>
