<svg width="168" height="194" viewBox="0 0 168 194" fill="none" xmlns="http://www.w3.org/2000/svg">
<path d="M167.296 48.2939V144.883L83.6484 193.177L0 144.883V48.2939L83.6484 0L167.296 48.2939ZM15.3154 57.1367V136.04L83.6484 175.491L151.98 136.04V57.1367L83.6484 17.6846L15.3154 57.1367Z" fill="#264DE4"/>
<path d="M128.175 47L120.142 136.99L84.0335 147L48.0245 137.004L40 47H128.175Z" fill="#264DE4"/>
<path d="M113.265 131.259L120.13 54.3591H84.0875V139.348L113.265 131.259Z" fill="#2965F1"/>
<path d="M58.3959 87.7402L59.3853 98.7787H84.0875V87.7402H58.3959Z" fill="#EBEBEB"/>
<path d="M84.0875 65.3977H84.0493H56.408L57.4114 76.4364H84.0875V65.3977Z" fill="#EBEBEB"/>
<path d="M84.0875 127.893V116.408L84.0391 116.421L71.7453 113.102L70.9594 104.298H64.9857H59.8784L61.425 121.63L84.0366 127.907L84.0875 127.893Z" fill="#EBEBEB"/>
<path d="M97.6421 98.7785L96.3608 113.095L84.0493 116.418V127.902L106.679 121.63L106.845 119.765L109.439 90.7042L109.708 87.7401L111.701 65.3977H84.0493V76.4364H99.6038L98.5994 87.7401H84.0493V98.7785H97.6421Z" fill="white"/>
</svg>
