<svg width="168" height="194" viewBox="0 0 168 194" fill="none" xmlns="http://www.w3.org/2000/svg">
<path d="M167.296 48.2939V144.883L83.6484 193.177L0 144.883V48.2939L83.6484 0L167.296 48.2939ZM15.3154 57.1367V136.04L83.6484 175.491L151.98 136.04V57.1367L83.6484 17.6846L15.3154 57.1367Z" fill="#0075C9"/>
<path d="M60.8779 74.0589L54.4526 67.6335V113.968L54.5431 116.14C54.5431 117.136 54.7241 118.312 55.0861 119.489L105.946 137.407L118.615 131.796L60.8779 74.0589Z" fill="#00C4B3"/>
<path d="M118.615 131.796L105.946 137.407L55.1764 119.489C56.1719 123.199 58.2533 127.362 60.6063 129.715L77.1673 146.186L114.09 146.276L118.615 131.796Z" fill="#22D3C5"/>
<path d="M54.6335 67.6335L34.905 97.4978C33.276 99.2173 34.0905 102.837 36.715 105.552L48.1177 117.045L55.267 119.579C54.9955 118.403 54.724 117.226 54.724 116.231L54.6335 114.059V67.6335Z" fill="#0075C9"/>
<path d="M106.308 68.1766C105.131 67.9051 103.955 67.7241 102.959 67.6336L100.697 67.5431H54.4526L118.615 131.706L124.226 119.036L106.308 68.1766Z" fill="#0075C9"/>
<path d="M116.534 73.6064C114.181 71.2534 110.109 69.0815 106.308 68.1765L124.226 119.036L118.615 131.706L132.371 127.272V89.534L116.534 73.6064Z" fill="#00A8E1"/>
<path d="M103.774 61.1177L92.2805 49.715C89.6561 47.0906 86.0362 46.2761 84.2263 47.905L54.362 67.6336H100.606L102.869 67.7241C103.864 67.7241 105.041 67.905 106.217 68.267L103.774 61.1177Z" fill="#00C4B3"/>
</svg>
