<svg width="168" height="194" viewBox="0 0 168 194" fill="none" xmlns="http://www.w3.org/2000/svg">
<path d="M167.296 48.2939V144.883L83.6484 193.177L0 144.883V48.2939L83.6484 0L167.296 48.2939ZM15.3154 57.1367V136.04L83.6484 175.491L151.98 136.04V57.1367L83.6484 17.6846L15.3154 57.1367Z" fill="#2496ED"/>
<path d="M133.014 83.0882C132.743 82.8728 130.211 80.9611 124.871 80.9611C123.461 80.9673 122.055 81.0882 120.664 81.3227C119.631 74.2396 113.775 70.7862 113.512 70.6313L112.079 69.8044L111.136 71.1652C109.955 72.9931 109.093 75.0081 108.586 77.1245C107.63 81.1678 108.212 84.9655 110.266 88.2122C107.786 89.5944 103.807 89.9346 103.002 89.9647H37.1303C35.4097 89.967 34.0136 91.3574 34.0042 93.0778C33.9274 98.8485 34.9051 104.585 36.8891 110.004C39.1583 115.955 42.5342 120.338 46.9262 123.021C51.8478 126.035 59.8439 127.757 68.9077 127.757C73.0024 127.77 77.0893 127.4 81.115 126.651C86.711 125.623 92.0959 123.667 97.0468 120.864C101.126 118.501 104.798 115.496 107.919 111.963C113.138 106.056 116.247 99.4762 118.559 93.629H119.48C125.194 93.629 128.708 91.3425 130.646 89.4264C131.933 88.2044 132.939 86.7157 133.591 85.0646L134 83.8676L133.014 83.0882Z" fill="#2496ED"/>
<path d="M43.236 88.0357H52.063C52.4888 88.0357 52.8337 87.6906 52.8337 87.265V79.4024C52.8361 78.9766 52.493 78.6297 52.0674 78.6273C52.066 78.6273 52.0644 78.6273 52.063 78.6273H43.236C42.8102 78.6273 42.4653 78.9724 42.4653 79.398V79.4024V87.2649C42.4653 87.6906 42.8102 88.0357 43.236 88.0357V88.0357Z" fill="#2496ED"/>
<path d="M55.4002 88.0357H64.2272C64.653 88.0357 64.998 87.6906 64.998 87.265V79.4024C65.0003 78.9766 64.6572 78.6297 64.2314 78.6273C64.23 78.6273 64.2285 78.6273 64.2271 78.6273H55.4C54.9719 78.6273 54.625 78.9743 54.625 79.4024V87.2649C54.6275 87.6913 54.9738 88.0357 55.4002 88.0357" fill="#2496ED"/>
<path d="M67.7494 88.0357H76.5764C77.0022 88.0357 77.3471 87.6906 77.3471 87.265V79.4024C77.3495 78.9766 77.0064 78.6297 76.5806 78.6273C76.5792 78.6273 76.5777 78.6273 76.5763 78.6273H67.7492C67.3235 78.6273 66.9785 78.9724 66.9785 79.398V79.4024V87.2649C66.9787 87.6906 67.3238 88.0357 67.7494 88.0357V88.0357Z" fill="#2496ED"/>
<path d="M79.9523 88.0357H88.7793C89.2058 88.0357 89.552 87.6915 89.5544 87.265V79.4024C89.5544 78.9743 89.2075 78.6273 88.7793 78.6273H79.9523C79.5266 78.6273 79.1816 78.9724 79.1816 79.398V79.4024V87.2649C79.1816 87.6906 79.5267 88.0357 79.9523 88.0357V88.0357Z" fill="#2496ED"/>
<path d="M55.4002 76.7242H64.2272C64.6535 76.7218 64.9979 76.3754 64.9979 75.9492V68.0866C64.9979 67.6609 64.6528 67.3159 64.2272 67.3159H55.4002C54.9739 67.3159 54.6275 67.6602 54.6251 68.0866V75.9492C54.6275 76.3763 54.973 76.7218 55.4002 76.7242Z" fill="#2496ED"/>
<path d="M67.7493 76.7242H76.5764C77.0027 76.7218 77.3471 76.3754 77.3471 75.9492V68.0866C77.3471 67.6609 77.002 67.3159 76.5764 67.3159H67.7493C67.3236 67.3159 66.9786 67.661 66.9786 68.0866V75.9492C66.9786 76.3754 67.3231 76.7218 67.7493 76.7242Z" fill="#2496ED"/>
<path d="M79.9523 76.7242H88.7793C89.2065 76.7218 89.552 76.3763 89.5544 75.9492V68.0866C89.552 67.6602 89.2058 67.3159 88.7793 67.3159H79.9523C79.5266 67.3159 79.1816 67.661 79.1816 68.0866V75.9492C79.1816 76.3754 79.526 76.7218 79.9523 76.7242Z" fill="#2496ED"/>
<path d="M79.9523 65.4084H88.7793C89.2058 65.4084 89.552 65.064 89.5544 64.6377V56.7707C89.552 56.3443 89.2058 56 88.7793 56H79.9523C79.5266 56 79.1816 56.345 79.1816 56.7707V64.6376C79.1816 65.0633 79.5267 65.4084 79.9523 65.4084Z" fill="#2496ED"/>
<path d="M92.2628 88.0357H101.09C101.516 88.0357 101.863 87.6915 101.865 87.265V79.4024C101.865 78.9743 101.518 78.6273 101.09 78.6273H92.2628C91.8372 78.6273 91.4921 78.9724 91.4921 79.398V79.4024V87.2649C91.4921 87.6906 91.8372 88.0357 92.2628 88.0357" fill="#2496ED"/>
</svg>
