<svg width="168" height="194" viewBox="0 0 168 194" fill="none" xmlns="http://www.w3.org/2000/svg">
<path d="M67.6667 147C76.8667 147 84.3333 139.533 84.3333 130.333V113.667H67.6667C58.4667 113.667 51 121.133 51 130.333C51 139.533 58.4667 147 67.6667 147Z" fill="#0ACF83"/>
<path d="M51 96.9999C51 87.7999 58.4667 80.3333 67.6667 80.3333H84.3333V113.667H67.6667C58.4667 113.667 51 106.2 51 96.9999Z" fill="#A259FF"/>
<path d="M51 63.6667C51 54.4667 58.4667 47 67.6667 47H84.3333V80.3333H67.6667C58.4667 80.3333 51 72.8667 51 63.6667Z" fill="#F24E1E"/>
<path d="M84.3333 47H101C110.2 47 117.667 54.4667 117.667 63.6667C117.667 72.8667 110.2 80.3333 101 80.3333L84.3333 80.3333V47Z" fill="#FF7262"/>
<path d="M117.667 96.9999C117.667 106.2 110.2 113.667 101 113.667C91.8 113.667 84.3333 106.2 84.3333 96.9999C84.3333 87.7999 91.8 80.3333 101 80.3333C110.2 80.3333 117.667 87.7999 117.667 96.9999Z" fill="#1ABCFE"/>
<path d="M167.296 48.2939V144.883L83.6484 193.177L0 144.883V48.2939L83.6484 0L167.296 48.2939ZM15.3154 57.1367V136.04L83.6484 175.491L151.98 136.04V57.1367L83.6484 17.6846L15.3154 57.1367Z" fill="#A259FF"/>
</svg>
