<svg width="168" height="194" viewBox="0 0 168 194" fill="none" xmlns="http://www.w3.org/2000/svg">
<path d="M167.296 48.2939V144.883L83.6484 193.177L0 144.883V48.2939L83.6484 0L167.296 48.2939ZM15.3154 57.1367V136.04L83.6484 175.491L151.98 136.04V57.1367L83.6484 17.6846L15.3154 57.1367Z" fill="#FFA000"/>
<path d="M96.4054 84.1175L86.4046 93.4292L77.1213 74.6964L81.917 63.9254C83.1291 61.7769 85.1114 61.7485 86.3235 63.9254L96.4054 84.1175Z" fill="#FFA000"/>
<path d="M86.4088 93.4251L49 128.219L77.1256 74.6964L86.4088 93.4251Z" fill="#F57F17"/>
<path d="M107.371 69.8765C109.163 68.1699 111.007 68.7455 111.474 71.1697L121.199 127.749L88.9424 147.114C87.8114 147.747 84.8116 147.994 84.8116 147.994C84.8116 147.994 82.0833 147.662 81.0375 147.086L49 128.219L107.371 69.8765Z" fill="#FFCA28"/>
<path d="M77.1255 74.6965L49 128.219L61.5345 49.9884C62.0047 47.5642 63.379 47.3169 64.6194 49.4654L77.1255 74.6965Z" fill="#FFA000"/>
</svg>
