<svg width="168" height="194" viewBox="0 0 168 194" fill="none" xmlns="http://www.w3.org/2000/svg">
<path d="M167.296 48.2939V144.883L83.6484 193.177L0 144.883V48.2939L83.6484 0L167.296 48.2939ZM15.3154 57.1367V136.04L83.6484 175.491L151.98 136.04V57.1367L83.6484 17.6846L15.3154 57.1367Z" fill="#DE4C36"/>
<path d="M132.114 92.5444L88.4531 48.8858C85.9402 46.3714 81.8621 46.3714 79.3461 48.8858L70.2797 57.9522L81.7809 69.4534C84.4535 68.5503 87.5184 69.1562 89.6488 71.2866C91.7894 73.4308 92.391 76.5218 91.466 79.203L102.55 90.2874C105.232 89.3636 108.326 89.9612 110.468 92.1065C113.461 95.0987 113.461 99.9483 110.468 102.942C107.473 105.937 102.624 105.937 99.6281 102.942C97.3766 100.689 96.8203 97.3819 97.9602 94.6081L87.6234 84.2714L87.6223 111.473C88.3716 111.844 89.056 112.333 89.6488 112.923C92.6422 115.915 92.6422 120.765 89.6488 123.761C86.6547 126.754 81.8027 126.754 78.8129 123.761C75.8195 120.765 75.8195 115.915 78.8129 112.923C79.5302 112.205 80.3827 111.637 81.3211 111.251V83.7952C80.3814 83.4116 79.5284 82.8429 78.8129 82.1229C76.5449 79.8581 75.9996 76.5304 77.1617 73.7456L65.8242 62.4069L35.8867 92.3425C33.3711 94.8593 33.3711 98.9378 35.8867 101.453L79.5484 145.112C82.0621 147.627 86.1394 147.627 88.6562 145.112L132.114 101.655C134.629 99.1397 134.629 95.0589 132.114 92.5444Z" fill="#DE4C36"/>
</svg>
