<svg width="168" height="194" viewBox="0 0 168 194" fill="none" xmlns="http://www.w3.org/2000/svg">
<path d="M167.296 48.2939V144.883L83.6484 193.177L0 144.883V48.2939L83.6484 0L167.296 48.2939ZM15.3154 57.1367V136.04L83.6484 175.491L151.98 136.04V57.1367L83.6484 17.6846L15.3154 57.1367Z" fill="#161614"/>
<path d="M84.0002 46C56.3894 46 34 68.3855 34 96.0002C34 118.092 48.3266 136.834 68.1933 143.446C70.692 143.908 71.6097 142.361 71.6097 141.04C71.6097 139.848 71.563 135.909 71.5418 131.731C57.6313 134.756 54.6961 125.832 54.6961 125.832C52.4217 120.052 49.1446 118.516 49.1446 118.516C44.6083 115.412 49.4865 115.476 49.4865 115.476C54.5075 115.829 57.1513 120.629 57.1513 120.629C61.6108 128.273 68.8482 126.063 71.7014 124.785C72.15 121.553 73.4461 119.348 74.8758 118.099C63.7703 116.835 52.0954 112.547 52.0954 93.3889C52.0954 87.9303 54.0487 83.4697 57.2474 79.9682C56.7282 78.7086 55.0169 73.6233 57.7317 66.7361C57.7317 66.7361 61.9304 65.3923 71.4853 71.8614C75.4734 70.7532 79.7509 70.198 84.0002 70.1791C88.2495 70.198 92.5301 70.7532 96.526 71.8614C106.07 65.3923 110.262 66.7361 110.262 66.7361C112.984 73.6233 111.272 78.7086 110.753 79.9682C113.958 83.4697 115.898 87.9299 115.898 93.3889C115.898 112.593 104.201 116.822 93.0677 118.059C94.861 119.611 96.459 122.654 96.459 127.319C96.459 134.009 96.4009 139.393 96.4009 141.04C96.4009 142.371 97.3009 143.93 99.8357 143.439C119.691 136.82 134 118.085 134 96.0002C134 68.3855 111.614 46 84.0002 46Z" fill="#161614"/>
<path d="M52.7266 117.227C52.6168 117.475 52.2255 117.549 51.8698 117.379C51.5071 117.216 51.3032 116.877 51.4208 116.628C51.5286 116.372 51.92 116.301 52.282 116.472C52.6455 116.635 52.8525 116.977 52.7266 117.227V117.227ZM55.1862 119.421C54.9477 119.642 54.4815 119.539 54.165 119.19C53.838 118.841 53.7768 118.376 54.0188 118.151C54.2646 117.93 54.7168 118.033 55.0446 118.382C55.3717 118.735 55.4352 119.198 55.1858 119.421L55.1862 119.421ZM56.8736 122.229C56.5669 122.442 56.0657 122.242 55.7563 121.797C55.4501 121.353 55.4501 120.82 55.763 120.606C56.0736 120.392 56.5669 120.584 56.8806 121.026C57.1865 121.478 57.1865 122.011 56.8732 122.229L56.8736 122.229ZM59.7268 125.481C59.4527 125.783 58.8692 125.702 58.4417 125.289C58.0049 124.886 57.8829 124.314 58.1578 124.012C58.4351 123.709 59.0221 123.794 59.4527 124.203C59.8868 124.605 60.0193 125.182 59.7272 125.481H59.7268ZM63.4145 126.579C63.2941 126.97 62.7318 127.148 62.1655 126.982C61.6001 126.811 61.2299 126.352 61.344 125.956C61.4616 125.562 62.0263 125.376 62.5969 125.554C63.1616 125.725 63.5326 126.18 63.4149 126.579H63.4145ZM67.612 127.044C67.6261 127.457 67.1458 127.799 66.5513 127.806C65.9533 127.819 65.4697 127.485 65.4635 127.08C65.4635 126.663 65.9329 126.325 66.5305 126.315C67.125 126.303 67.612 126.634 67.612 127.044V127.044ZM71.735 126.886C71.8064 127.289 71.3931 127.702 70.8029 127.812C70.2225 127.918 69.6853 127.669 69.6112 127.27C69.539 126.858 69.9602 126.445 70.5394 126.338C71.1307 126.235 71.6597 126.477 71.735 126.886" fill="#161614"/>
</svg>
