<svg width="168" height="194" viewBox="0 0 168 194" fill="none" xmlns="http://www.w3.org/2000/svg">
<path d="M167.296 48.2939V144.883L83.6484 193.177L0 144.883V48.2939L83.6484 0L167.296 48.2939ZM15.3154 57.1367V136.04L83.6484 175.491L151.98 136.04V57.1367L83.6484 17.6846L15.3154 57.1367Z" fill="#E535AB"/>
<path fill-rule="evenodd" clip-rule="evenodd" d="M92.9725 58.4443L113.507 70.3008C114.1 69.6735 114.78 69.1351 115.527 68.7023C119.786 66.254 125.218 67.7077 127.692 71.9666C130.14 76.2256 128.686 81.6573 124.427 84.131C123.686 84.5578 122.887 84.8759 122.056 85.0754V108.797C122.878 108.997 123.668 109.313 124.402 109.735C128.686 112.209 130.14 117.641 127.666 121.9C125.218 126.158 119.76 127.612 115.502 125.164C114.676 124.691 113.933 124.087 113.3 123.377L92.8906 135.161C93.1895 136.066 93.3413 137.013 93.3402 137.966C93.3402 142.862 89.3621 146.866 84.4401 146.866C79.518 146.866 75.5399 142.888 75.5399 137.966C75.5399 137.091 75.6656 136.246 75.9 135.448L55.3708 123.595C54.7844 124.21 54.1137 124.738 53.3786 125.164C49.0943 127.612 43.6622 126.158 41.2139 121.9C38.7658 117.641 40.2195 112.209 44.4781 109.735C45.2117 109.313 46.0018 108.997 46.8244 108.797V85.0754C45.9927 84.8759 45.194 84.5578 44.4528 84.131C40.1938 81.683 38.7401 76.2256 41.1885 71.9666C43.6369 67.7077 49.094 66.254 53.3529 68.7023C54.0956 69.1328 54.7726 69.6678 55.3631 70.2907L75.9038 58.4311C75.6616 57.6093 75.5391 56.7569 75.5399 55.9002C75.5399 50.9788 79.518 47 84.4401 47C89.3621 47 93.3402 50.9784 93.3402 55.9002C93.3402 56.7848 93.2118 57.6385 92.9725 58.4443ZM90.8332 62.0974L111.417 73.9817C111.089 75.1274 110.995 76.3274 111.14 77.5102C111.286 78.693 111.668 79.8345 112.263 80.8668C113.516 83.0464 115.557 84.4914 117.822 85.0545V108.806C117.707 108.834 117.592 108.865 117.478 108.897L90.594 62.3353C90.6752 62.2575 90.7551 62.178 90.8332 62.0974ZM78.2917 62.3405L51.4083 108.902C51.2921 108.868 51.1752 108.837 51.0577 108.808V85.0545C53.3231 84.4914 55.3642 83.0464 56.6172 80.8668C57.2138 79.8325 57.5959 78.6886 57.7406 77.5034C57.8854 76.3182 57.7899 75.116 57.4598 73.9685L78.0376 62.0877C78.1206 62.1735 78.2053 62.2582 78.2917 62.3405ZM86.927 64.4496L113.804 111.001C113.188 111.588 112.661 112.261 112.237 112.999C111.815 113.733 111.499 114.523 111.299 115.346H57.5817C57.3816 114.523 57.0655 113.733 56.6429 112.999C56.2179 112.266 55.6912 111.597 55.0784 111.012L81.9608 64.4517C82.7667 64.6838 83.6014 64.8011 84.4401 64.8003C85.3035 64.8003 86.1378 64.6781 86.927 64.4496ZM91.022 131.97L111.472 120.163C111.411 119.97 111.356 119.775 111.308 119.579H57.5702C57.5417 119.694 57.5108 119.809 57.4778 119.923L78.0279 131.788C78.8577 130.925 79.8536 130.239 80.9556 129.772C82.0576 129.304 83.2429 129.064 84.4401 129.066C85.6791 129.064 86.9049 129.321 88.0385 129.821C89.1721 130.321 90.1884 131.053 91.022 131.97Z" fill="#E535AB"/>
</svg>
