<svg width="168" height="194" viewBox="0 0 168 194" fill="none" xmlns="http://www.w3.org/2000/svg">
<path d="M167.296 48.2939V144.883L83.6484 193.177L0 144.883V48.2939L83.6484 0L167.296 48.2939ZM15.3154 57.1367V136.04L83.6484 175.491L151.98 136.04V57.1367L83.6484 17.6846L15.3154 57.1367Z" fill="#E44D26"/>
<path d="M48.0214 137.034L40 47H128.187L120.165 136.985L84.0204 147" fill="#E44D26"/>
<path d="M84.093 139.344V54.3901H120.141L113.262 131.201" fill="#F16529"/>
<path d="M56.3831 65.4009H84.0933V76.4364H68.4881L69.509 87.7392H84.0933V98.7504H59.3972L56.3831 65.4009ZM59.8833 104.292H70.9674L71.7452 113.116L84.0933 116.422V127.943L61.439 121.624" fill="#EBEBEB"/>
<path d="M111.706 65.4009H84.0442V76.4364H110.685L111.706 65.4009ZM109.688 87.7392H84.0442V98.7747H97.6562L96.368 113.116L84.0442 116.422V127.895L106.65 121.624" fill="white"/>
</svg>
