<svg width="168" height="194" viewBox="0 0 168 194" fill="none" xmlns="http://www.w3.org/2000/svg">
<path d="M167.296 48.2939V144.883L83.6484 193.177L0 144.883V48.2939L83.6484 0L167.296 48.2939ZM15.3154 57.1367V136.04L83.6484 175.491L151.98 136.04V57.1367L83.6484 17.6846L15.3154 57.1367Z" fill="#3880FF"/>
<g clip-path="url(#clip0_43_2030)">
<path fill-rule="evenodd" clip-rule="evenodd" d="M129.102 75.2993L129.51 76.2517C132.503 82.8503 134 89.7891 134 97C134 124.551 111.551 147 84 147C56.449 147 34 124.551 34 97C34 69.449 56.449 47 84 47C92.0953 47 99.7822 48.9048 106.857 52.4422L107.809 52.9184L106.993 53.5986C104.952 55.2313 103.388 57.2721 102.367 59.6531L102.095 60.3333L101.483 60.0612C95.9728 57.4762 90.1225 56.1157 84 56.1157C61.415 56.1157 43.1157 74.415 43.1157 97C43.1157 119.585 61.415 137.884 84 137.884C106.585 137.884 124.884 119.517 124.884 97C124.884 91.6259 123.864 86.3197 121.755 81.3538L121.483 80.6734L122.163 80.4013C124.544 79.5169 126.721 78.0204 128.422 76.1157L129.102 75.2993ZM116.721 76.2518C122.469 76.2518 127.129 71.5919 127.129 65.8436C127.129 60.0953 122.469 55.4354 116.721 55.4354C110.973 55.4354 106.313 60.0953 106.313 65.8436C106.313 71.5919 110.973 76.2518 116.721 76.2518ZM83.9997 74.2111C71.4147 74.2111 61.2106 84.415 61.2106 97.0003C61.2106 109.585 71.4147 119.789 83.9997 119.789C96.5847 119.789 106.789 109.585 106.789 97.0003C106.789 84.415 96.5847 74.2111 83.9997 74.2111Z" fill="#3880FF"/>
</g>
<defs>
<clipPath id="clip0_43_2030">
<rect width="100" height="100" fill="white" transform="translate(34 47)"/>
</clipPath>
</defs>
</svg>
