<svg width="168" height="194" viewBox="0 0 168 194" fill="none" xmlns="http://www.w3.org/2000/svg">
<path d="M167.296 48.2939V144.883L83.6484 193.177L0 144.883V48.2939L83.6484 0L167.296 48.2939ZM15.3154 57.1367V136.04L83.6484 175.491L151.98 136.04V57.1367L83.6484 17.6846L15.3154 57.1367Z" fill="#F7DF1E"/>
<path d="M125 56H43V138H125V56Z" fill="#F7DF1E"/>
<path d="M98.0832 120.063C99.7349 122.76 101.884 124.742 105.684 124.742C108.877 124.742 110.917 123.146 110.917 120.941C110.917 118.299 108.821 117.363 105.307 115.826L103.381 115C97.8202 112.631 94.1263 109.663 94.1263 103.39C94.1263 97.6105 98.5296 93.2111 105.411 93.2111C110.31 93.2111 113.832 94.9162 116.37 99.3806L110.37 103.233C109.049 100.864 107.624 99.9312 105.411 99.9312C103.154 99.9312 101.724 101.363 101.724 103.233C101.724 105.545 103.155 106.481 106.461 107.913L108.388 108.738C114.935 111.545 118.631 114.407 118.631 120.842C118.631 127.78 113.182 131.581 105.863 131.581C98.7066 131.581 94.0834 128.17 91.8212 123.701L98.0832 120.063ZM70.8631 120.731C72.0735 122.878 73.1747 124.694 75.8221 124.694C78.3537 124.694 79.9507 123.703 79.9507 119.852V93.651H87.6561V119.956C87.6561 127.935 82.9782 131.566 76.1501 131.566C69.9806 131.566 66.4077 128.373 64.5907 124.528L70.8631 120.731Z" fill="black"/>
</svg>
