<svg width="168" height="194" viewBox="0 0 168 194" fill="none" xmlns="http://www.w3.org/2000/svg">
<path d="M167.296 48.2939V144.883L83.6484 193.177L0 144.883V48.2939L83.6484 0L167.296 48.2939ZM15.3154 57.1367V136.04L83.6484 175.491L151.98 136.04V57.1367L83.6484 17.6846L15.3154 57.1367Z" fill="#006699"/>
<path d="M46 64.4619C46 61.4462 48.5067 59 51.5991 59H116.168C119.26 59 121.767 61.4462 121.767 64.4619V129.786C121.767 132.803 119.26 135.248 116.168 135.248H51.5991C48.5067 135.248 46 132.803 46 129.786V64.4619Z" fill="#006699"/>
<path fill-rule="evenodd" clip-rule="evenodd" d="M68.9674 122.827V88.3972H57.5234V122.827H68.9674ZM63.2454 83.6964C67.2361 83.6964 69.72 81.0525 69.72 77.7485C69.6456 74.37 67.2361 71.7995 63.3211 71.7995C59.4064 71.7995 56.8469 74.37 56.8469 77.7485C56.8469 81.0525 59.3303 83.6964 63.1708 83.6964H63.2454Z" fill="white"/>
<path fill-rule="evenodd" clip-rule="evenodd" d="M75.2997 122.827H86.7435V103.6C86.7435 102.571 86.8179 101.543 87.1201 100.808C87.9474 98.7516 89.8304 96.6222 92.9918 96.6222C97.1328 96.6222 98.7894 99.7796 98.7894 104.408V122.827H110.232V103.086C110.232 92.5103 104.586 87.5893 97.0572 87.5893C90.8836 87.5893 88.1733 91.0401 86.6674 93.3905H86.7439V88.3972H75.3C75.4502 91.6279 75.2997 122.827 75.2997 122.827Z" fill="white"/>
</svg>
