<svg width="168" height="194" viewBox="0 0 168 194" fill="none" xmlns="http://www.w3.org/2000/svg">
<path d="M167.296 48.2939V144.883L83.6484 193.177L0 144.883V48.2939L83.6484 0L167.296 48.2939ZM15.3154 57.1367V136.04L83.6484 175.491L151.98 136.04V57.1367L83.6484 17.6846L15.3154 57.1367Z" fill="#00B0FF"/>
<path d="M34 100.3V57L71.5 78.65V93.0833L46.5 78.65V107.517L34 100.3Z" fill="#00B0FF"/>
<path d="M71.5 78.65L109 57V100.3L84 114.733L71.5 107.517L96.5 93.0833V78.65L71.5 93.0833V78.65Z" fill="#0081CB"/>
<path d="M71.5 107.517V121.95L96.5 136.383V121.95L71.5 107.517Z" fill="#00B0FF"/>
<path d="M96.5 136.383L134 114.733V85.8667L121.5 93.0833V107.517L96.5 121.95V136.383ZM121.5 78.65V64.2167L134 57V71.4333L121.5 78.65Z" fill="#0081CB"/>
</svg>
