<svg width="168" height="194" viewBox="0 0 168 194" fill="none" xmlns="http://www.w3.org/2000/svg">
<path d="M167.296 48.2939V144.883L83.6484 193.177L0 144.883V48.2939L83.6484 0L167.296 48.2939ZM15.3154 57.1367V136.04L83.6484 175.491L151.98 136.04V57.1367L83.6484 17.6846L15.3154 57.1367Z" fill="#8CC84B"/>
<path d="M80.2785 48.0669C82.758 46.6476 85.9876 46.6412 88.465 48.0669C100.929 55.1094 113.396 62.141 125.858 69.1878C128.201 70.5081 129.769 73.1166 129.745 75.8173V118.188C129.763 121.001 128.04 123.671 125.567 124.962C113.145 131.966 100.728 138.978 88.308 145.982C85.7772 147.429 82.4827 147.317 80.031 145.752C76.3067 143.593 72.576 141.444 68.8513 139.287C68.0902 138.834 67.2322 138.473 66.6948 137.735C67.1699 137.094 68.0193 137.014 68.7096 136.735C70.2642 136.24 71.692 135.447 73.1202 134.677C73.4813 134.43 73.9222 134.525 74.2684 134.746C77.4531 136.572 80.6097 138.451 83.8051 140.259C84.4868 140.653 85.177 140.13 85.7597 139.806C97.9501 132.916 110.156 126.052 122.344 119.16C122.795 118.943 123.045 118.463 123.008 117.969C123.017 103.992 123.011 90.0118 123.013 76.0345C123.064 75.4732 122.739 74.9572 122.232 74.7274C109.852 67.7557 97.4793 60.7733 85.1019 53.7999C84.8874 53.6524 84.6334 53.5733 84.3732 53.5729C84.1129 53.5726 83.8587 53.6509 83.6438 53.7977C71.2664 60.7733 58.8954 67.7622 46.518 74.7335C46.0123 74.9636 45.6728 75.4711 45.733 76.0345C45.7352 90.0118 45.733 103.992 45.733 117.971C45.7116 118.212 45.7646 118.454 45.8849 118.665C46.0053 118.875 46.1872 119.043 46.4062 119.147C49.7091 121.02 53.0164 122.88 56.3215 124.747C58.1834 125.749 60.4696 126.344 62.521 125.577C64.3314 124.927 65.6003 123.08 65.5658 121.158C65.5829 107.262 65.5573 93.3642 65.5786 79.4707C65.5334 78.8538 66.1185 78.3442 66.7183 78.4022C68.3053 78.3915 69.8945 78.3809 71.4815 78.4065C72.144 78.3916 72.5998 79.0558 72.5179 79.6773C72.5115 93.6609 72.535 107.645 72.5072 121.629C72.5115 125.355 70.9804 129.411 67.5332 131.234C63.2864 133.434 58.0374 132.967 53.8419 130.858C50.2099 129.045 46.7438 126.906 43.1762 124.964C40.697 123.68 38.9829 120.999 39.0003 118.188V75.8173C38.9743 73.0606 40.6044 70.4048 43.0213 69.1038C55.4418 62.0943 67.8601 55.0795 80.2785 48.0669Z" fill="#8CC84B"/>
<path d="M91.1141 77.4174C96.5312 77.0687 102.33 77.2108 107.205 79.8795C110.979 81.9245 113.072 86.2165 113.138 90.4095C113.033 90.9751 112.442 91.2871 111.902 91.2483C110.33 91.2461 108.758 91.2696 107.186 91.2376C106.52 91.2632 106.132 90.6485 106.048 90.0591C105.597 88.0529 104.503 86.0659 102.614 85.0982C99.7156 83.6469 96.3545 83.7199 93.1937 83.7502C90.8862 83.8727 88.4048 84.0725 86.4499 85.4294C84.9491 86.4573 84.4932 88.5322 85.0289 90.2033C85.5339 91.4032 86.919 91.7903 88.0522 92.1472C94.5805 93.8546 101.498 93.6847 107.902 95.9317C110.553 96.8477 113.147 98.6285 114.054 101.404C115.241 105.125 114.721 109.572 112.074 112.558C109.928 115.016 106.801 116.354 103.683 117.08C99.535 118.005 95.2302 118.029 91.0176 117.618C87.0564 117.167 82.9343 116.126 79.8764 113.427C77.2615 111.157 75.9843 107.619 76.1111 104.204C76.1414 103.628 76.7155 103.226 77.2679 103.273C78.8507 103.26 80.4334 103.256 82.0162 103.275C82.6483 103.23 83.117 103.776 83.1494 104.372C83.4415 106.284 84.1598 108.29 85.8266 109.423C89.0434 111.498 93.0797 111.356 96.7631 111.414C99.8146 111.279 103.24 111.238 105.73 109.221C107.044 108.071 107.433 106.146 107.078 104.49C106.694 103.093 105.231 102.441 103.976 102.015C97.5309 99.9765 90.5357 100.716 84.1534 98.4109C81.5624 97.4952 79.0569 95.7639 78.0614 93.1021C76.6724 89.3347 77.3089 84.6747 80.2333 81.7888C83.0846 78.9182 87.2007 77.8127 91.1141 77.4171V77.4174Z" fill="#8CC84B"/>
</svg>
