<svg width="168" height="194" viewBox="0 0 168 194" fill="none" xmlns="http://www.w3.org/2000/svg">
<path d="M167.296 48.2939V144.883L83.6484 193.177L0 144.883V48.2939L83.6484 0L167.296 48.2939ZM15.3154 57.1367V136.04L83.6484 175.491L151.98 136.04V57.1367L83.6484 17.6846L15.3154 57.1367Z" fill="#336791"/>
<path d="M124.783 106.917C124.29 105.416 122.999 104.371 121.329 104.12C120.542 104.002 119.641 104.052 118.574 104.273C116.714 104.659 115.334 104.806 114.327 104.834C118.128 98.3826 121.218 91.0253 122.997 84.0997C125.874 72.9012 124.337 67.7995 122.541 65.4919C117.786 59.384 110.85 56.1028 102.482 56.0024C98.0179 55.9476 94.0991 56.8337 92.0548 57.471C90.1514 57.1333 88.1049 56.9448 85.9575 56.9099C81.9321 56.8453 78.3754 57.7276 75.3364 59.5409C73.6539 58.9689 70.9536 58.1625 67.8353 57.6479C60.5011 56.4373 54.59 57.3806 50.2663 60.4516C45.0308 64.17 42.6037 70.6304 43.0526 79.6534C43.1951 82.5182 44.789 91.2345 47.2986 99.5009C48.7409 104.252 50.2788 108.198 51.8698 111.229C54.126 115.528 56.5403 118.059 59.2505 118.968C60.7696 119.477 63.5296 119.833 66.4325 117.402C66.8004 117.85 67.2914 118.296 67.9428 118.709C68.7703 119.234 69.782 119.662 70.7924 119.916C74.4338 120.832 77.8447 120.603 80.7547 119.32C80.7726 119.84 80.7864 120.337 80.798 120.767C80.8173 121.463 80.8365 122.146 80.8619 122.784C81.0343 127.102 81.3265 130.459 82.1921 132.808C82.2397 132.937 82.3035 133.134 82.371 133.343C82.8028 134.672 83.5249 136.898 85.3622 138.641C87.2646 140.446 89.5658 141 91.6734 141C92.7304 141 93.7389 140.861 94.6235 140.67C97.7765 139.991 101.358 138.956 103.948 135.247C106.397 131.741 107.588 126.46 107.803 118.14C107.831 117.905 107.857 117.68 107.882 117.466L107.933 117.027L108.51 117.078L108.659 117.088C111.87 117.235 115.797 116.55 118.209 115.424C120.114 114.535 126.221 111.293 124.783 106.917Z" fill="black"/>
<path d="M119.292 107.768C109.743 109.748 109.086 106.498 109.086 106.498C119.168 91.4564 123.383 72.3634 119.746 67.6904C109.824 54.9436 92.6473 60.9721 92.3605 61.1283L92.2684 61.1451C90.3817 60.7512 88.2706 60.5169 85.8975 60.4778C81.577 60.4068 78.2994 61.6167 75.8123 63.513C75.8123 63.513 45.1714 50.8214 46.5967 79.4749C46.8998 85.5706 55.2865 125.598 65.2895 113.508C68.9456 109.087 72.4785 105.349 72.4785 105.349C74.2329 106.521 76.3334 107.119 78.5354 106.904L78.7065 106.758C78.6532 107.307 78.6776 107.844 78.7749 108.479C76.1979 111.374 76.9553 111.882 71.8039 112.949C66.5911 114.029 69.6533 115.952 71.6527 116.455C74.0765 117.064 79.6839 117.927 83.4727 112.594L83.3218 113.203C84.3312 114.016 85.0402 118.492 84.9214 122.549C84.8026 126.607 84.7233 129.392 85.5186 131.568C86.3146 133.744 87.1073 138.64 93.8796 137.181C99.538 135.961 102.47 132.802 102.879 127.531C103.168 123.785 103.823 124.339 103.864 120.989L104.39 119.403C104.996 114.324 104.486 112.685 107.972 113.447L108.82 113.522C111.385 113.639 114.744 113.107 116.715 112.186C120.959 110.206 123.477 106.899 119.292 107.768Z" fill="#336791"/>
<path d="M77.6058 82.2009C76.7453 82.0805 75.9661 82.1919 75.5718 82.4921C75.3502 82.6609 75.2815 82.8565 75.2629 82.9912C75.2135 83.3479 75.462 83.7424 75.6148 83.9458C76.047 84.5217 76.6782 84.9175 77.3031 85.0046C77.3936 85.0175 77.4838 85.0234 77.5734 85.0234C78.6153 85.0234 79.5628 84.2076 79.6463 83.6055C79.7507 82.8514 78.6619 82.3484 77.6058 82.2009ZM106.113 82.2248C106.031 81.6337 104.985 81.4652 103.992 81.604C103 81.7428 102.039 82.1928 102.119 82.7852C102.183 83.2459 103.011 84.0323 103.99 84.0323C104.073 84.0323 104.156 84.0268 104.241 84.0148C104.894 83.9238 105.374 83.5064 105.602 83.2659C105.949 82.8992 106.15 82.4905 106.113 82.2248Z" fill="white"/>
<path d="M122.469 107.543C122.105 106.436 120.933 106.08 118.986 106.484C113.205 107.684 111.135 106.853 110.455 106.349C114.949 99.4667 118.645 91.1468 120.64 83.3844C121.584 79.7073 122.106 76.2925 122.149 73.509C122.196 70.4541 121.678 68.2092 120.611 66.8378C116.308 61.3094 109.992 58.3439 102.347 58.2625C97.0914 58.2031 92.6509 59.5554 91.79 59.9357C89.9772 59.4825 88.0009 59.2042 85.8494 59.1687C81.9039 59.1044 78.4934 60.0542 75.6698 61.9902C74.4432 61.5311 71.2735 60.4371 67.3971 59.8092C60.6954 58.7245 55.37 59.5464 51.5696 62.2533C47.035 65.4835 44.9415 71.2576 45.347 79.4149C45.4835 82.1592 47.0388 90.6018 49.4932 98.6871C52.7239 109.329 56.2359 115.353 59.9309 116.592C60.3634 116.737 60.8621 116.839 61.4121 116.839C62.76 116.839 64.4126 116.228 66.132 114.15C68.2292 111.62 70.3986 109.152 72.6375 106.748C74.09 107.532 75.6858 107.97 77.3179 108.014C77.3211 108.057 77.3253 108.1 77.3291 108.142C77.0482 108.479 76.7731 108.821 76.5039 109.167C75.3731 110.611 75.1377 110.911 71.4976 111.665C70.4621 111.88 67.7121 112.45 67.6716 114.388C67.6279 116.506 70.9226 117.395 71.2979 117.489C72.606 117.819 73.8662 117.981 75.0681 117.981C77.9909 117.981 80.5631 117.015 82.6186 115.146C82.5554 122.696 82.8684 130.135 83.77 132.402C84.5085 134.257 86.3124 138.792 92.0103 138.792C92.8464 138.792 93.7666 138.694 94.779 138.476C100.726 137.194 103.308 134.551 104.307 128.725C104.842 125.612 105.759 118.177 106.191 114.188C107.101 114.474 108.273 114.605 109.541 114.604C112.184 114.604 115.234 114.04 117.147 113.147C119.295 112.144 123.173 109.682 122.469 107.543ZM108.308 80.5932C108.288 81.7705 108.127 82.8394 107.956 83.9551C107.772 85.1551 107.582 86.3957 107.534 87.9017C107.487 89.3673 107.669 90.8911 107.845 92.3648C108.201 95.3413 108.566 98.4056 107.153 101.429C106.918 101.011 106.709 100.579 106.527 100.135C106.351 99.7069 105.97 99.0193 105.442 98.0676C103.387 94.3628 98.5755 85.6871 101.038 82.147C101.772 81.0932 103.634 80.0098 108.308 80.5932ZM102.643 60.6466C109.493 60.7987 114.911 63.3751 118.747 68.3041C121.69 72.0847 118.45 89.2873 109.07 104.128C108.976 104.007 108.881 103.887 108.786 103.767L108.667 103.618C111.091 99.5936 110.617 95.6115 110.195 92.081C110.021 90.6322 109.858 89.2637 109.899 87.9782C109.942 86.6159 110.122 85.4472 110.295 84.3173C110.508 82.925 110.725 81.4842 110.665 79.7858C110.71 79.6076 110.727 79.3971 110.704 79.1472C110.552 77.5186 108.702 72.6442 104.933 68.2324C102.871 65.8193 99.8637 63.1188 95.758 61.2974C97.5239 60.9294 99.9388 60.5862 102.643 60.6466ZM64.3124 112.628C62.418 114.919 61.11 114.479 60.6797 114.336C57.8767 113.395 54.6241 107.439 51.7565 97.9927C49.2752 89.8193 47.8252 81.6004 47.7102 79.2957C47.348 72.0069 49.1053 66.9272 52.9336 64.1974C59.1639 59.7553 69.407 62.4141 73.523 63.7625C73.4639 63.8213 73.4023 63.8762 73.3438 63.9359C66.5895 70.7941 66.7498 82.5114 66.7665 83.2278C66.7658 83.5041 66.7889 83.8954 66.8204 84.4335C66.9366 86.4044 67.153 90.0724 66.5751 94.2262C66.0382 98.0863 67.2218 101.864 69.8216 104.592C70.0884 104.871 70.3688 105.137 70.6618 105.389C69.5047 106.635 66.9896 109.39 64.3124 112.628ZM71.53 102.946C69.4347 100.747 68.483 97.6895 68.9187 94.5555C69.5287 90.1676 69.3037 86.346 69.1826 84.2928C69.1656 84.0055 69.1505 83.7537 69.1418 83.5551C70.1285 82.6754 74.7011 80.2122 77.962 80.9635C79.4499 81.306 80.3566 82.3248 80.7336 84.0771C82.6845 93.1496 80.9917 96.9309 79.6316 99.9697C79.3513 100.596 79.0864 101.187 78.8604 101.799L78.685 102.273C78.2413 103.469 77.8284 104.582 77.5725 105.638C75.3448 105.631 73.1778 104.675 71.53 102.946ZM71.872 115.181C71.2215 115.018 70.6365 114.734 70.2932 114.499C70.58 114.363 71.0902 114.178 71.9751 113.995C76.2573 113.109 76.9188 112.483 78.363 110.639C78.694 110.217 79.0694 109.737 79.5892 109.154L79.5899 109.153C80.364 108.282 80.7181 108.429 81.3603 108.697C81.8808 108.914 82.3878 109.57 82.5933 110.291C82.6906 110.632 82.7997 111.279 82.4424 111.783C79.4255 116.03 75.0292 115.975 71.872 115.181ZM94.2832 136.149C89.0445 137.278 87.1896 134.59 85.9672 131.518C85.1783 129.535 84.7904 120.59 85.0656 110.713C85.0691 110.581 85.0505 110.454 85.0145 110.335C84.9824 110.099 84.9335 109.866 84.8681 109.637C84.4591 108.2 83.4621 106.998 82.2661 106.499C81.7909 106.301 80.9188 105.938 79.8708 106.208C80.0943 105.282 80.4818 104.236 80.9021 103.104L81.0784 102.628C81.2768 102.091 81.526 101.535 81.7893 100.946C83.2126 97.7667 85.1619 93.412 83.0463 83.5745C82.2539 79.8897 79.6075 78.0903 75.5959 78.5084C73.191 78.7586 70.9906 79.7341 69.8932 80.2936C69.6572 80.4137 69.4414 80.5299 69.2398 80.6429C69.5461 76.9304 70.7033 69.9922 75.0321 65.6023C77.7578 62.8389 81.3876 61.474 85.8102 61.5476C94.5244 61.6909 100.112 66.1873 103.266 69.9344C105.984 73.163 107.455 76.4155 108.043 78.1697C103.626 77.7181 100.622 78.5946 99.0998 80.7833C95.7872 85.5444 100.912 94.785 103.375 99.2262C103.827 100.04 104.217 100.743 104.339 101.042C105.141 102.997 106.18 104.302 106.938 105.254C107.17 105.546 107.396 105.829 107.567 106.076C106.229 106.464 103.827 107.36 104.046 111.838C103.869 114.085 102.613 124.604 101.975 128.321C101.133 133.231 99.3361 135.06 94.2832 136.149ZM116.15 110.989C114.782 111.628 112.493 112.106 110.319 112.209C107.917 112.322 106.695 111.939 106.407 111.703C106.272 108.912 107.305 108.621 108.398 108.312C108.57 108.264 108.738 108.216 108.9 108.159C109 108.242 109.11 108.323 109.231 108.404C111.161 109.685 114.604 109.823 119.465 108.814L119.518 108.803C118.863 109.419 117.741 110.247 116.15 110.989Z" fill="white"/>
</svg>
