<svg width="256" height="256" viewBox="0 0 256 256" fill="none" xmlns="http://www.w3.org/2000/svg">
  <rect width="256" height="256" rx="56" fill="#FF6C37"/>
  <circle cx="128" cy="128" r="72" fill="white" opacity="0.14"/>
  <path d="M105 74.5C105 65.4 112.4 58 121.5 58H135C144.1 58 151.5 65.4 151.5 74.5V181.5C151.5 190.6 144.1 198 135 198H121.5C112.4 198 105 190.6 105 181.5V74.5Z" fill="white"/>
  <path d="M128 82C110.3 82 96 96.3 96 114C96 131.7 110.3 146 128 146C145.7 146 160 131.7 160 114C160 96.3 145.7 82 128 82Z" fill="#FF6C37"/>
  <path d="M118 114C118 108.5 122.5 104 128 104C133.5 104 138 108.5 138 114C138 119.5 133.5 124 128 124C122.5 124 118 119.5 118 114Z" fill="white"/>
</svg>
