<svg width="168" height="194" viewBox="0 0 168 194" fill="none" xmlns="http://www.w3.org/2000/svg">
<path d="M167.296 48.2939V144.883L83.6484 193.177L0 144.883V48.2939L83.6484 0L167.296 48.2939ZM15.3154 57.1367V136.04L83.6484 175.491L151.98 136.04V57.1367L83.6484 17.6846L15.3154 57.1367Z" fill="#FF570A"/>
<g clip-path="url(#clip0_43_2042)">
<path d="M84 44C111.614 44 134 66.3859 134 94C134 121.614 111.614 144 84 144C56.3858 144 34.0001 121.614 34 94C34 66.3858 56.3858 44 84 44ZM74.8964 57.4626C77.0624 73.4376 86.0067 69.2767 91.2738 80.2881C91.2738 80.2881 82.3858 67.8894 67.7725 72.4544C67.834 72.5859 73.1906 83.9411 88.854 86.2721C88.854 86.2721 90.1148 90.7109 90.4958 91.4945C90.3388 91.411 66.2102 78.5914 58.8669 103.431C53.3842 102.157 51.5451 108.263 57.8463 112.436C57.8669 112.352 58.9437 108.054 61.5293 106.77C61.5293 106.77 55.927 113.184 62.5158 120.864H86.164C86.7355 119.893 89.264 114.782 83.0101 110.914C87.4251 110.849 91.019 119.394 94.8852 120.922H100.507C100.698 120.447 101.096 119.026 100.163 117.747C98.7221 116.053 95.5717 116.282 95.5986 113.149C96.6878 98.5656 117.996 103.042 117.318 85.4902L117.008 85.1012C115.575 83.3692 109.374 76.4215 101.825 75.9702C96.2593 75.6331 94.9066 76.395 94.6636 76.9635C94.3172 74.0123 91.859 60.3571 74.8964 57.4626Z" fill="#FF570A"/>
</g>
<defs>
<clipPath id="clip0_43_2042">
<rect width="100" height="100" fill="white" transform="translate(34 44)"/>
</clipPath>
</defs>
</svg>
