<svg width="168" height="194" viewBox="0 0 168 194" fill="none" xmlns="http://www.w3.org/2000/svg">
<path d="M167.296 48.2939V144.883L83.6484 193.177L0 144.883V48.2939L83.6484 0L167.296 48.2939ZM15.3154 57.1367V136.04L83.6484 175.491L151.98 136.04V57.1367L83.6484 17.6846L15.3154 57.1367Z" fill="#61DAFB"/>
<path d="M63.6602 47.0081C62.0039 47.0644 60.4258 47.4675 59 48.2894C56.15 49.9347 54.4484 52.9534 53.6836 56.5261C52.9195 60.0995 53 64.3487 53.7617 69.1042C54.0555 70.9378 54.4852 72.8659 54.982 74.837C53.0266 75.3917 51.1414 75.9855 49.407 76.648C44.907 78.3667 41.1883 80.4214 38.4758 82.8706C35.7633 85.3198 34 88.3003 34 91.5909C34 94.8816 35.7625 97.8644 38.4758 100.313C41.1875 102.763 44.9062 104.817 49.4062 106.536C51.1406 107.199 53.0258 107.791 54.9813 108.346C54.4844 110.317 54.0547 112.246 53.7609 114.078C52.9992 118.836 52.9203 123.084 53.6844 126.657C54.45 130.231 56.1492 133.249 58.9992 134.894C61.8492 136.539 65.3117 136.503 68.7891 135.378C72.2656 134.253 75.9062 132.06 79.6445 129.022C81.0852 127.852 82.5406 126.517 84 125.1C85.4578 126.517 86.9141 127.852 88.3547 129.022C92.0922 132.061 95.7313 134.254 99.2086 135.379C102.685 136.504 106.15 136.539 109 134.895C111.85 133.249 113.552 130.231 114.316 126.657C115.08 123.084 114.998 118.835 114.237 114.079C113.943 112.246 113.515 110.317 113.018 108.346C114.973 107.792 116.859 107.198 118.593 106.536C123.093 104.818 126.812 102.763 129.524 100.314C132.237 97.8644 134 94.8816 134 91.5909C134 88.3003 132.238 85.3191 129.524 82.8706C126.812 80.4222 123.093 78.3659 118.593 76.648C116.859 75.9862 114.975 75.3917 113.02 74.837C113.516 72.8659 113.945 70.937 114.238 69.1042C115 64.3487 115.079 60.0995 114.315 56.5261C113.551 52.9527 111.851 49.9347 109 48.2894C106.149 46.6441 102.688 46.68 99.2102 47.805C95.7336 48.93 92.093 51.1237 88.3547 54.1612C86.9141 55.3331 85.4563 56.6675 83.9977 58.0847C82.5391 56.6683 81.0836 55.3323 79.643 54.1612C75.9063 51.1237 72.2688 48.9284 68.7922 47.8034C67.0531 47.2409 65.3172 46.9519 63.6594 47.0066L63.6602 47.0081ZM63.8602 51.3402C64.8992 51.3105 66.0898 51.5019 67.4539 51.9417C70.1805 52.8245 73.45 54.7308 76.9016 57.5355C78.2313 58.6152 79.5914 59.8652 80.9617 61.1995C78.0992 64.2933 75.2602 67.8112 72.5133 71.6948C67.7766 72.1323 63.3102 72.8323 59.1984 73.7652C58.7297 71.9105 58.3266 70.1089 58.0555 68.4159C57.3523 64.0253 57.3367 60.2402 57.9367 57.437C58.5359 54.6347 59.657 52.9316 61.1742 52.0558C61.9328 51.6183 62.8211 51.3683 63.8602 51.3402ZM104.141 51.3402C105.18 51.3691 106.068 51.6175 106.827 52.0558C108.344 52.9308 109.465 54.6339 110.064 57.4362C110.663 60.2386 110.65 64.0245 109.947 68.4159C109.676 70.1073 109.273 71.9112 108.804 73.7644C104.693 72.8323 100.226 72.1316 95.4875 71.6948C92.7406 67.812 89.9 64.2933 87.0375 61.1987C88.4078 59.8652 89.7695 58.6144 91.0992 57.5347C94.5508 54.7284 97.8203 52.8253 100.548 51.9425C101.911 51.5019 103.102 51.3112 104.141 51.3409L104.141 51.3402ZM84 64.3269C86.0454 66.5592 87.985 68.8863 89.8125 71.3003C87.9031 71.2144 85.9711 71.1566 84 71.1566C82.0297 71.1566 80.0977 71.2136 78.1875 71.3003C80.0141 68.8856 81.9537 66.5585 84 64.3269ZM84 75.505C87.1133 75.505 90.1484 75.6277 93.0891 75.8487C94.7992 78.3531 96.4147 80.9208 97.932 83.5464C99.4474 86.1738 100.863 88.8572 102.177 91.5909C100.863 94.3241 99.4473 97.007 97.932 99.6339C96.4145 102.26 94.7987 104.829 93.0883 107.334C90.1484 107.555 87.1133 107.678 84.0008 107.678C80.9668 107.678 77.9339 107.563 74.9086 107.335C73.1989 104.829 71.584 102.261 70.0672 99.6339C68.5519 97.0075 67.1358 94.3252 65.8219 91.5925C67.1362 88.8587 68.5529 86.1753 70.0687 83.548C71.5863 80.9218 73.2021 78.3536 74.9125 75.8487C77.9366 75.6204 80.9673 75.5057 84 75.505ZM69.3336 76.4136C68.2858 78.0441 67.2751 79.6982 66.3023 81.3745C65.3368 83.0548 64.4095 84.7568 63.5211 86.4792C62.3437 83.6897 61.2978 80.8464 60.3867 77.9589C63.1914 77.3339 66.1773 76.8105 69.3336 76.4136ZM98.6672 76.4136C101.672 76.7886 104.658 77.3043 107.614 77.9589C106.703 80.847 105.657 83.6907 104.48 86.4808C103.591 84.7576 102.664 83.0548 101.698 81.3737C100.726 79.6974 99.715 78.0433 98.6672 76.4128V76.4136ZM56.1602 79.0237C57.4086 83.0503 59.0359 87.2691 61.0273 91.5894C59.0352 95.9112 57.4102 100.132 56.1602 104.158C54.3203 103.639 52.5586 103.085 50.957 102.474C46.8016 100.888 43.5164 99.0066 41.3883 97.0847C39.2609 95.1644 38.3469 93.3425 38.3469 91.5902C38.3469 89.8386 39.2609 88.0183 41.3883 86.098C43.5164 84.1761 46.8023 82.2956 50.957 80.7097C52.5586 80.098 54.3203 79.5433 56.1602 79.023V79.0237ZM111.84 79.0237C113.68 79.5441 115.443 80.0987 117.043 80.7112C121.199 82.2972 124.484 84.1769 126.612 86.098C128.74 88.0198 129.654 89.8402 129.654 91.5909C129.654 93.3433 128.74 95.1652 126.612 97.0855C124.484 99.0073 121.198 100.887 117.044 102.474C115.442 103.085 113.679 103.638 111.839 104.158C110.591 100.132 108.964 95.9136 106.974 91.5925C108.966 87.2706 110.591 83.0511 111.84 79.0237ZM84 82.6784C81.6364 82.6788 79.3697 83.618 77.6984 85.2893C76.027 86.9606 75.0879 89.2273 75.0875 91.5909C75.0879 93.9547 76.0271 96.2215 77.6986 97.8928C79.3701 99.5642 81.637 100.503 84.0008 100.503C86.3644 100.503 88.6311 99.5639 90.3024 97.8926C91.9737 96.2212 92.9129 93.9546 92.9133 91.5909C92.9129 89.2272 91.9736 86.9604 90.3021 85.289C88.6306 83.6177 86.3638 82.6786 84 82.6784ZM104.48 96.7027C105.657 99.4928 106.702 102.337 107.612 105.225C104.809 105.85 101.823 106.374 98.6688 106.771C99.7158 105.14 100.726 103.485 101.698 101.808C102.663 100.128 103.591 98.4253 104.48 96.7027ZM63.5211 96.7042C64.4095 98.4263 65.3368 100.128 66.3023 101.808C67.2755 103.485 68.2862 105.139 69.3336 106.771C66.3286 106.397 63.343 105.881 60.3867 105.225C61.2978 102.337 62.3437 99.4938 63.5211 96.7042ZM59.1969 109.419C63.3078 110.35 67.775 111.05 72.5133 111.486C75.2602 115.371 78.1008 118.89 80.9633 121.986C79.593 123.318 78.2328 124.568 76.9031 125.65C73.4516 128.455 70.1789 130.361 67.4516 131.244C64.725 132.125 62.6898 132.004 61.1727 131.128C59.6555 130.252 58.5359 128.55 57.9367 125.748C57.3367 122.945 57.3516 119.16 58.0555 114.767C58.3266 113.075 58.7273 111.272 59.1969 109.419ZM108.802 109.419C109.271 111.272 109.674 113.075 109.945 114.767C110.648 119.16 110.664 122.945 110.064 125.748C109.465 128.551 108.344 130.253 106.827 131.131C105.309 132.006 103.275 132.125 100.548 131.242C97.8203 130.36 94.5508 128.453 91.0992 125.649C89.7703 124.568 88.4086 123.318 87.0391 121.985C89.9016 118.891 92.7406 115.371 95.4875 111.486C100.224 111.05 104.691 110.35 108.802 109.419ZM78.1875 111.882C80.1239 111.974 82.0622 112.022 84.0008 112.027C85.9397 112.022 87.8782 111.974 89.8148 111.882C87.9879 114.297 86.0477 116.626 84.0008 118.858C81.9544 116.626 80.014 114.297 78.1875 111.882Z" fill="#61DAFB"/>
</svg>
