<svg width="168" height="194" viewBox="0 0 168 194" fill="none" xmlns="http://www.w3.org/2000/svg">
<path d="M167.296 48.2939V144.883L83.6484 193.177L0 144.883V48.2939L83.6484 0L167.296 48.2939ZM15.3154 57.1367V136.04L83.6484 175.491L151.98 136.04V57.1367L83.6484 17.6846L15.3154 57.1367Z" fill="#61DAFB"/>
<path d="M84.3067 102.816C89.1757 102.816 93.1229 98.8691 93.1229 94.0001C93.1229 89.131 89.1757 85.1838 84.3067 85.1838C79.4376 85.1838 75.4904 89.131 75.4904 94.0001C75.4904 98.8691 79.4376 102.816 84.3067 102.816Z" fill="#61DAFB"/>
<path d="M84.3066 112.063C110.433 112.063 131.613 103.976 131.613 94C131.613 84.0244 110.433 75.9375 84.3066 75.9375C58.1799 75.9375 37 84.0244 37 94C37 103.976 58.1799 112.063 84.3066 112.063Z" stroke="#61DAFB" stroke-width="5"/>
<path d="M68.664 103.031C81.7274 125.658 99.3207 139.957 107.96 134.969C116.599 129.981 113.013 107.595 99.9492 84.9687C86.8858 62.3423 69.2925 48.0434 60.6533 53.0313C52.0141 58.0191 55.6006 80.4049 68.664 103.031Z" stroke="#61DAFB" stroke-width="5"/>
<path d="M68.664 84.9687C55.6007 107.595 52.0141 129.981 60.6533 134.969C69.2925 139.957 86.8859 125.658 99.9492 103.031C113.013 80.4048 116.599 58.0191 107.96 53.0312C99.3208 48.0434 81.7274 62.3423 68.664 84.9687Z" stroke="#61DAFB" stroke-width="5"/>
</svg>
