<svg width="168" height="194" viewBox="0 0 168 194" fill="none" xmlns="http://www.w3.org/2000/svg">
<path d="M167.296 48.2939V144.883L83.6484 193.177L0 144.883V48.2939L83.6484 0L167.296 48.2939ZM15.3154 57.1367V136.04L83.6484 175.491L151.98 136.04V57.1367L83.6484 17.6846L15.3154 57.1367Z" fill="#017ACB"/>
<path d="M43 56H125V138H43V56Z" fill="#017ACB"/>
<path d="M82.3729 86.3656H86.3063V93.1562H75.6719V123.368L75.39 123.445C75.0057 123.547 69.9447 123.547 68.8556 123.432L67.9844 123.355V93.1562H57.35V86.3656L60.7197 86.3272C62.5647 86.3016 67.3053 86.3016 71.2516 86.3272C75.1978 86.3528 80.1947 86.3656 82.3729 86.3656ZM112.393 120.165C110.829 121.818 109.151 122.74 106.358 123.496C105.141 123.829 104.936 123.842 102.194 123.829C99.4519 123.817 99.2341 123.817 97.9016 123.471C94.4551 122.587 91.6747 120.857 89.7785 118.41C89.2404 117.718 88.3563 116.283 88.3563 116.103C88.3563 116.052 88.4844 115.937 88.651 115.86C88.8176 115.783 89.1635 115.565 89.4454 115.399C89.7272 115.232 90.2397 114.925 90.5857 114.745C90.9316 114.566 91.931 113.977 92.8022 113.451C93.6735 112.926 94.4679 112.503 94.5576 112.503C94.6472 112.503 94.8138 112.682 94.9419 112.9C95.7107 114.194 97.5044 115.847 98.7729 116.411C99.5544 116.744 101.284 117.116 102.117 117.116C102.886 117.116 104.295 116.782 105.051 116.437C105.858 116.065 106.268 115.693 106.755 114.95C107.088 114.425 107.127 114.284 107.114 113.285C107.114 112.362 107.063 112.106 106.806 111.683C106.089 110.504 105.115 109.889 101.169 108.147C97.0944 106.34 95.2622 105.264 93.776 103.816C92.6741 102.74 92.4563 102.445 91.7644 101.1C90.8676 99.3703 90.7522 98.8066 90.7394 96.2312C90.7266 94.4247 90.7651 93.8353 90.9572 93.2203C91.2263 92.2978 92.0976 90.5169 92.4947 90.0684C93.3147 89.1075 93.6094 88.8128 94.186 88.3387C95.9285 86.9037 98.6448 85.9556 101.246 85.8659C101.54 85.8659 102.514 85.9172 103.424 85.9812C106.038 86.1991 107.819 86.8397 109.535 88.2106C110.829 89.2356 112.79 91.6444 112.598 91.9647C112.469 92.1569 107.357 95.565 107.024 95.6675C106.819 95.7316 106.678 95.6547 106.396 95.3216C104.654 93.2331 103.949 92.7847 102.258 92.6822C101.054 92.6053 100.413 92.7462 99.6057 93.2844C98.7601 93.8481 98.3501 94.7066 98.3501 95.8981C98.3629 97.6406 99.0291 98.4606 101.489 99.6778C103.078 100.459 104.436 101.1 104.539 101.1C104.692 101.1 107.985 102.74 108.844 103.252C112.841 105.597 114.468 108.006 114.891 112.157C115.199 115.283 114.314 118.141 112.393 120.165Z" fill="white"/>
</svg>
