<svg width="168" height="194" viewBox="0 0 168 194" fill="none" xmlns="http://www.w3.org/2000/svg">
<path d="M167.296 48.2939V144.883L83.6484 193.177L0 144.883V48.2939L83.6484 0L167.296 48.2939ZM15.3154 57.1367V136.04L83.6484 175.491L151.98 136.04V57.1367L83.6484 17.6846L15.3154 57.1367Z" fill="#916BFE"/>
<path d="M132.848 68.801L86.7313 152.695C85.7791 154.427 83.3328 154.437 82.3664 152.713L35.3354 68.8088C34.2824 66.9307 35.8612 64.6554 37.9535 65.0362L84.1197 73.4307C84.4142 73.4842 84.7158 73.4837 85.0102 73.4291L130.211 65.0479C132.296 64.6612 133.882 66.9189 132.848 68.801Z" fill="url(#paint0_linear_43_2025)"/>
<path d="M106.111 54.0246L71.9835 60.8278C71.7108 60.8821 71.4636 61.0271 71.2808 61.24C71.0979 61.4528 70.9898 61.7215 70.9734 62.0037L68.8741 98.074C68.8626 98.2718 68.8965 98.4697 68.9733 98.6518C69.05 98.834 69.1675 98.9954 69.3162 99.1233C69.465 99.2513 69.6411 99.3421 69.8304 99.3888C70.0197 99.4354 70.2171 99.4364 70.407 99.3919L79.9086 97.1611C80.7976 96.9524 81.601 97.749 81.4181 98.6584L78.5952 112.722C78.4054 113.668 79.2786 114.477 80.1871 114.196L86.056 112.383C86.9656 112.102 87.84 112.913 87.6474 113.86L83.1614 135.95C82.8807 137.332 84.6873 138.085 85.4405 136.901L85.944 136.11L113.753 79.6495C114.219 78.7042 113.416 77.6262 112.395 77.8268L102.615 79.747C101.696 79.9273 100.914 79.0565 101.173 78.142L107.557 55.6292C107.816 54.7124 107.031 53.8413 106.111 54.0246Z" fill="url(#paint1_linear_43_2025)"/>
<defs>
<linearGradient id="paint0_linear_43_2025" x1="34.1871" y1="71.8048" x2="85.0375" y2="139.688" gradientUnits="userSpaceOnUse">
<stop stop-color="#41D1FF"/>
<stop offset="1" stop-color="#BD34FE"/>
</linearGradient>
<linearGradient id="paint1_linear_43_2025" x1="88.3984" y1="55.8718" x2="98.9803" y2="127.224" gradientUnits="userSpaceOnUse">
<stop stop-color="#FFEA83"/>
<stop offset="0.083" stop-color="#FFDD35"/>
<stop offset="1" stop-color="#FFA800"/>
</linearGradient>
</defs>
</svg>
